<?xml version="1.0" encoding="utf-8"?>
<svg xmlns="http://www.w3.org/2000/svg" viewBox="0 0 621 388">
  <g fill="#1a98ff">
    <path d="M60.721 154.621c8.841 0 15.358-2.996 19.546-9 4.183-6 6.275-15.479 6.275-28.425 0-13.108-2.054-22.658-6.159-28.667-4.108-5.996-10.662-9-19.662-9-8.209 0-15.954 2.133-23.213 6.396v62.3c6.946 4.267 14.684 6.396 23.213 6.396Zm-51.875 72.25c-2.054 0-3.558-.438-4.504-1.304-.946-.867-1.421-2.409-1.421-4.621v-158c0-2.208.475-3.746 1.421-4.617.946-.866 2.45-1.3 4.504-1.3H25.9c3.633 0 5.842 1.738 6.633 5.208l1.659 6.159c4.737-4.579 10.458-8.213 17.17-10.896 6.713-2.683 13.542-4.029 20.492-4.029 15.317 0 27.438 5.608 36.363 16.821 8.921 11.216 13.387 26.375 13.387 45.479 0 13.112-2.217 24.562-6.633 34.35-4.425 9.796-10.425 17.333-18.009 22.621-7.579 5.296-16.266 7.937-26.054 7.937-6.479 0-12.637-1.029-18.479-3.079-5.842-2.05-10.816-4.896-14.921-8.529v51.875c0 2.212-.441 3.754-1.304 4.621-.871.866-2.412 1.304-4.621 1.304H8.846Z"/>
    <path d="M150.717 178.071c-2.054 0-3.559-.471-4.505-1.417-.945-.95-1.42-2.446-1.42-4.504V62.946c0-2.208.475-3.746 1.42-4.617.946-.866 2.451-1.3 4.505-1.3h17.054c3.633 0 5.841 1.738 6.629 5.208l3.083 12.792c6.313-6.946 12.275-11.883 17.884-14.804 5.604-2.921 11.566-4.383 17.887-4.383h3.317c2.208 0 3.787.437 4.733 1.304.95.866 1.421 2.408 1.421 4.616v19.9c0 2.055-.433 3.55-1.3 4.501-.871.945-2.413 1.425-4.621 1.425-1.104 0-2.525-.084-4.262-.242-1.738-.154-3.95-.238-6.634-.238-3.633 0-8.054.517-13.266 1.542-5.213 1.025-9.634 2.333-13.263 3.908v79.592c0 2.058-.442 3.554-1.304 4.504-.871.946-2.412 1.417-4.621 1.417h-22.737Z"/>
    <path d="M245.371 178.071c-2.054 0-3.554-.471-4.5-1.417-.95-.95-1.421-2.446-1.421-4.504V62.946c0-2.208.471-3.746 1.421-4.617.946-.866 2.446-1.3 4.5-1.3h22.742c2.208 0 3.75.434 4.616 1.3.867.871 1.308 2.409 1.308 4.617V172.15c0 2.058-.441 3.554-1.308 4.504-.866.946-2.408 1.417-4.616 1.417h-22.742Zm11.371-139.759c-6.005 0-10.821-1.658-14.45-4.975-3.638-3.316-5.446-7.816-5.446-13.499 0-5.688 1.808-10.192 5.446-13.505 3.629-3.316 8.445-4.975 14.45-4.975 6 0 10.816 1.659 14.45 4.975 3.629 3.313 5.45 7.817 5.45 13.505 0 5.683-1.821 10.183-5.45 13.499-3.634 3.317-8.45 4.975-14.45 4.975Z"/>
    <path d="M309.287 178.071c-2.058 0-3.558-.471-4.508-1.417-.942-.95-1.417-2.446-1.417-4.504V62.946c0-2.208.475-3.746 1.417-4.617.95-.866 2.45-1.3 4.508-1.3h17.05c3.634 0 5.846 1.738 6.634 5.208l1.896 6.396c8.37-5.525 15.912-9.433 22.625-11.725a63.69 63.69 0 0 1 20.725-3.437c14.216 0 24.241 5.058 30.083 15.162 8.054-5.366 15.638-9.237 22.746-11.604 7.104-2.375 14.446-3.558 22.029-3.558 11.05 0 19.621 3.079 25.7 9.242 6.079 6.154 9.121 14.766 9.121 25.816v83.621c0 2.058-.438 3.554-1.3 4.504-.871.946-2.413 1.417-4.625 1.417h-22.738c-2.054 0-3.554-.471-4.5-1.417-.946-.95-1.425-2.446-1.425-4.504V96.108c0-10.737-4.816-16.104-14.445-16.104-8.53 0-17.142 2.05-25.826 6.159v85.987c0 2.058-.437 3.554-1.304 4.504-.87.946-2.408 1.417-4.616 1.417h-22.742c-2.054 0-3.554-.471-4.5-1.417-.95-.95-1.421-2.446-1.421-4.504V96.108c0-10.737-4.821-16.104-14.45-16.104-8.846 0-17.529 2.133-26.058 6.392v85.754c0 2.058-.438 3.554-1.3 4.504-.871.946-2.413 1.417-4.621 1.417h-22.738Z"/>
    <path d="M562.275 107.246c8.05 0 13.896-1.225 17.529-3.675 3.629-2.442 5.446-6.196 5.446-11.25 0-9.946-5.921-14.925-17.762-14.925-15.163 0-23.934 9.325-26.296 27.954 6.316 1.267 13.341 1.896 21.083 1.896Zm7.817 74.379c-19.588 0-34.629-5.362-45.125-16.104-10.509-10.742-15.755-26.138-15.755-46.192 0-20.529 5.363-36.637 16.109-48.329 10.737-11.683 25.662-17.529 44.771-17.529 14.687 0 26.175 3.558 34.466 10.662 8.288 7.109 12.438 16.58 12.438 28.425 0 11.846-4.467 20.809-13.383 26.888-8.925 6.079-22.071 9.121-39.442 9.121-9 0-16.821-.871-23.454-2.605.941 10.58 4.145 18.159 9.595 22.738 5.446 4.583 13.701 6.871 24.755 6.871 4.42 0 8.725-.275 12.912-.829 4.179-.554 9.984-1.78 17.404-3.671.479-.158.95-.279 1.425-.358.471-.08.867-.117 1.184-.117 2.683 0 4.025 1.816 4.025 5.446v10.895c0 2.53-.355 4.309-1.063 5.334-.712 1.029-2.096 1.937-4.146 2.721-11.529 4.425-23.77 6.633-36.716 6.633Z"/>
    <path d="M557.696 311.146c-67.554 49.85-165.484 76.354-249.813 76.354-118.187 0-224.616-43.687-305.154-116.404-6.321-5.713-.683-13.513 6.917-9.088 86.896 50.563 194.35 81.013 305.333 81.013 74.867 0 157.167-15.538 232.896-47.659 11.417-4.845 20.992 7.526 9.821 15.784Z"/>
    <path d="M585.804 279.05c-8.646-11.058-57.108-5.242-78.887-2.629-6.596.792-7.621-4.975-1.675-9.15 38.671-27.154 102.025-19.317 109.387-10.221 7.421 9.167-1.95 72.692-38.183 103.004-5.575 4.659-10.875 2.175-8.404-3.983 8.154-20.363 26.408-65.95 17.762-77.021Z"/>
  </g>
</svg>
